<svg width="24" height="24" viewBox="0 0 24 24" fill="none" xmlns="http://www.w3.org/2000/svg">
    <path fill-rule="evenodd" clip-rule="evenodd" d="M10.856 13.1442C9.68602 11.9742 8.80402 10.6642 8.21802 9.33524C8.09402 9.05424 8.16702 8.72524 8.38402 8.50824L9.20302 7.69024C9.87402 7.01924 9.87402 6.07024 9.28802 5.48424L8.11402 4.31024C7.33302 3.52924 6.06702 3.52924 5.28602 4.31024L4.63402 4.96224C3.89302 5.70324 3.58402 6.77224 3.78402 7.83224C4.27802 10.4452 5.79602 13.3062 8.24502 15.7552C10.694 18.2042 13.555 19.7222 16.168 20.2162C17.228 20.4162 18.297 20.1072 19.038 19.3662L19.689 18.7152C20.47 17.9342 20.47 16.6682 19.689 15.8872L18.516 14.7142C17.93 14.1282 16.98 14.1282 16.395 14.7142L15.492 15.6182C15.275 15.8352 14.946 15.9082 14.665 15.7842C13.336 15.1972 12.026 14.3142 10.856 13.1442Z"  stroke="#5ea267" stroke-linecap="round" stroke-linejoin="round"/>
    </svg>
    