<svg width="24" height="24" viewBox="0 0 24 24" fill="none" xmlns="http://www.w3.org/2000/svg">
    <path fill-rule="evenodd" clip-rule="evenodd" d="M10.8581 13.144C9.6881 11.974 8.8061 10.664 8.2201 9.33499C8.0961 9.05399 8.1691 8.72499 8.3861 8.50799L9.2051 7.68999C9.8761 7.01899 9.8761 6.06999 9.2901 5.48399L8.1161 4.30999C7.3351 3.52899 6.0691 3.52899 5.2881 4.30999L4.6361 4.96199C3.8951 5.70299 3.5861 6.77199 3.7861 7.83199C4.2801 10.445 5.7981 13.306 8.2471 15.755C10.6961 18.204 13.5571 19.722 16.1701 20.216C17.2301 20.416 18.2991 20.107 19.0401 19.366L19.6911 18.715C20.4721 17.934 20.4721 16.668 19.6911 15.887L18.5181 14.714C17.9321 14.128 16.9821 14.128 16.3971 14.714L15.4941 15.618C15.2771 15.835 14.9481 15.908 14.6671 15.784C13.3381 15.197 12.0281 14.314 10.8581 13.144Z" stroke="#949494" stroke-width="1.5" stroke-linecap="round" stroke-linejoin="round"/>
    </svg>
    