<svg width="115" height="242" viewBox="0 0 115 18" fill="none" xmlns="http://www.w3.org/2000/svg">
    <path d="M0.68 17V0.68H4.736L11.024 9.536V0.68H15.392V17H11.312L5.048 8.408V17H0.68ZM17.3103 11.192C17.3103 9.24 17.9103 7.712 19.1103 6.608C20.3263 5.504 21.8143 4.952 23.5743 4.952C25.4303 4.952 26.8223 5.552 27.7503 6.752C28.6783 7.952 29.1423 9.368 29.1423 11V12.512H22.0623C22.2543 12.96 22.5423 13.28 22.9263 13.472C23.3263 13.664 23.7983 13.76 24.3423 13.76C24.8543 13.76 25.3743 13.712 25.9023 13.616C26.4463 13.52 26.9423 13.36 27.3903 13.136L28.6143 16.088C27.9423 16.584 27.1103 16.904 26.1183 17.048C25.1263 17.192 24.3903 17.264 23.9103 17.264C22.0223 17.264 20.4463 16.784 19.1823 15.824C17.9343 14.848 17.3103 13.304 17.3103 11.192ZM24.9663 9.872C24.9503 9.616 24.8303 9.32 24.6063 8.984C24.3823 8.632 23.9983 8.456 23.4543 8.456C23.0543 8.456 22.7263 8.584 22.4703 8.84C22.2303 9.08 22.0543 9.424 21.9423 9.872H24.9663ZM40.3199 16.232C40.0319 16.488 39.5599 16.728 38.9039 16.952C38.2639 17.16 37.6639 17.264 37.1039 17.264C35.6159 17.264 34.2959 16.88 33.1439 16.112C31.9919 15.344 31.4159 14.184 31.4159 12.632V9.272H29.6159V5.84H31.4159V2.696L35.7839 2.096V5.84H38.5919L38.9999 9.272H35.7839V12.152C35.7839 12.632 35.9199 13.016 36.1919 13.304C36.4799 13.576 36.8799 13.712 37.3919 13.712C37.5999 13.712 37.8639 13.68 38.1839 13.616C38.5039 13.536 38.7999 13.416 39.0719 13.256L40.3199 16.232ZM57.2596 17L53.7316 7.04L50.2996 17H45.9316L40.3156 1.112L44.6116 0.68L48.1636 11.672L51.5956 0.68H55.9396L59.4916 11.672L62.9236 0.68H67.2676L61.6276 17H57.2596ZM71.3855 13.088C71.3855 13.28 71.4655 13.44 71.6255 13.568C71.7855 13.696 71.9695 13.76 72.1775 13.76C72.4335 13.76 72.6895 13.704 72.9455 13.592C73.2015 13.48 73.4575 13.32 73.7135 13.112V12.248H72.3695C72.0815 12.248 71.8415 12.328 71.6495 12.488C71.4735 12.632 71.3855 12.832 71.3855 13.088ZM68.1215 6.056C68.7295 5.784 69.4975 5.536 70.4255 5.312C71.3535 5.072 72.2975 4.952 73.2575 4.952C74.8415 4.952 76.0415 5.392 76.8575 6.272C77.6735 7.152 78.0815 8.328 78.0815 9.8V17H76.1375L75.3455 16.112C74.9935 16.464 74.5295 16.744 73.9535 16.952C73.3775 17.16 72.7615 17.264 72.1055 17.264C70.6335 17.264 69.5375 16.896 68.8175 16.16C68.0975 15.424 67.7375 14.456 67.7375 13.256C67.7375 11.992 68.1615 11.072 69.0095 10.496C69.8575 9.904 70.9535 9.608 72.2975 9.608H73.6895C73.6255 9.256 73.4575 8.984 73.1855 8.792C72.9135 8.6 72.5775 8.504 72.1775 8.504C71.7775 8.504 71.3055 8.576 70.7615 8.72C70.2175 8.848 69.7215 9.008 69.2735 9.2L68.1215 6.056ZM89.7393 16.232C89.4513 16.488 88.9793 16.728 88.3233 16.952C87.6833 17.16 87.0833 17.264 86.5233 17.264C85.0353 17.264 83.7153 16.88 82.5633 16.112C81.4113 15.344 80.8353 14.184 80.8353 12.632V9.272H79.0353V5.84H80.8353V2.696L85.2033 2.096V5.84H88.0113L88.4193 9.272H85.2033V12.152C85.2033 12.632 85.3393 13.016 85.6113 13.304C85.8993 13.576 86.2993 13.712 86.8113 13.712C87.0193 13.712 87.2833 13.68 87.6033 13.616C87.9233 13.536 88.2193 13.416 88.4913 13.256L89.7393 16.232ZM99.335 9.128C98.871 8.888 98.471 8.728 98.135 8.648C97.799 8.552 97.423 8.504 97.007 8.504C96.415 8.504 95.887 8.744 95.423 9.224C94.959 9.704 94.727 10.36 94.727 11.192C94.727 12.008 94.959 12.632 95.423 13.064C95.887 13.496 96.415 13.712 97.007 13.712C97.391 13.712 97.759 13.672 98.111 13.592C98.463 13.496 98.871 13.328 99.335 13.088L100.559 16.088C99.887 16.616 99.175 16.944 98.423 17.072C97.671 17.2 97.055 17.264 96.575 17.264C94.687 17.264 93.151 16.744 91.967 15.704C90.799 14.648 90.215 13.144 90.215 11.192C90.215 9.24 90.799 7.712 91.967 6.608C93.151 5.504 94.687 4.952 96.575 4.952C97.055 4.952 97.671 5.016 98.423 5.144C99.175 5.272 99.887 5.6 100.559 6.128L99.335 9.128ZM102.15 17V0.319999L106.518 0.0559993V5.72C106.998 5.512 107.542 5.336 108.15 5.192C108.758 5.032 109.342 4.952 109.902 4.952C111.55 4.952 112.726 5.416 113.43 6.344C114.134 7.256 114.486 8.408 114.486 9.8V17H110.118V9.896C110.118 9.448 109.982 9.104 109.71 8.864C109.438 8.624 109.102 8.504 108.702 8.504C108.43 8.504 108.086 8.576 107.67 8.72C107.254 8.864 106.87 9.016 106.518 9.176V17H102.15Z" fill="#FF5F5F"/>
    </svg>
    